<?xml version="1.0" standalone="no"?>
<!DOCTYPE svg PUBLIC "-//W3C//DTD SVG 20010904//EN"
 "http://www.w3.org/TR/2001/REC-SVG-20010904/DTD/svg10.dtd">
<svg version="1.0" xmlns="http://www.w3.org/2000/svg"
 width="1155.000000pt" height="1197.000000pt" viewBox="0 0 1155.000000 1197.000000"
 preserveAspectRatio="xMidYMid meet">

<g transform="translate(0.000000,1197.000000) scale(0.100000,-0.100000)"
fill="#000000" stroke="none">
<path d="M5515 11358 c-187 -18 -296 -49 -339 -97 -11 -12 -23 -21 -28 -21 -4
0 -18 -10 -29 -21 -17 -17 -23 -19 -30 -8 -7 11 -12 9 -24 -9 -15 -21 -42 -22
-30 -1 4 5 -1 9 -9 9 -9 0 -16 -5 -16 -11 0 -5 -5 -7 -12 -3 -8 5 -4 13 11 26
28 22 16 23 -30 4 -45 -19 -92 -70 -118 -128 -14 -30 -28 -48 -39 -48 -21 -1
-52 -23 -52 -39 0 -17 -18 -13 -29 7 -6 10 -11 12 -11 4 0 -7 -4 -10 -10 -7
-5 3 -10 -1 -10 -9 0 -9 -8 -16 -17 -16 -9 0 -27 -10 -40 -22 -19 -17 -23 -19
-17 -5 8 21 -5 22 -33 2 -14 -10 -32 -13 -47 -9 -13 3 -27 1 -31 -6 -7 -11
-45 -29 -79 -36 -22 -4 -116 -90 -132 -120 -19 -36 -36 -123 -30 -150 4 -14 2
-32 -4 -39 -13 -16 -16 -221 -5 -300 4 -27 7 -61 7 -75 -1 -14 -2 -164 -2
-335 0 -253 3 -320 15 -365 17 -58 44 -167 51 -210 26 -139 62 -234 50 -130
-5 41 -3 60 8 75 22 30 28 13 15 -39 -6 -25 -9 -60 -5 -77 3 -18 2 -28 -4 -24
-16 10 -11 -12 10 -47 30 -49 27 -65 -12 -61 -28 3 -30 2 -15 -7 9 -6 27 -13
39 -15 11 -3 23 -7 27 -11 3 -3 6 -70 6 -149 -1 -115 -4 -147 -17 -168 -18
-27 -13 -67 17 -124 8 -15 15 -33 15 -39 0 -7 8 -14 19 -17 26 -6 54 -66 40
-83 -9 -10 -8 -15 4 -20 8 -3 18 -24 21 -47 4 -23 11 -49 17 -57 15 -22 5 38
-41 225 -61 254 -63 269 -55 390 4 60 10 133 14 160 l7 50 8 -40 c4 -22 19
-74 32 -117 36 -114 52 -123 219 -123 145 0 286 23 372 61 36 15 53 19 56 11
5 -17 54 63 99 163 21 47 58 122 81 168 37 72 45 82 69 82 30 0 39 -13 125
-181 27 -53 55 -102 61 -110 7 -8 21 -26 33 -41 23 -31 73 -48 139 -48 33 0
41 3 30 10 -10 7 10 10 65 10 92 0 289 38 357 68 68 30 80 55 90 185 8 110 16
156 17 107 1 -20 10 -29 41 -43 22 -9 46 -17 54 -17 28 0 39 -34 57 -173 24
-186 24 -213 -6 -391 -13 -83 -26 -173 -29 -201 -5 -56 -24 -171 -32 -197 -3
-10 -1 -18 5 -18 5 0 13 20 16 45 6 39 9 42 22 30 20 -21 26 -19 13 5 -12 22
4 130 19 130 4 0 7 12 6 28 0 21 4 26 19 24 28 -5 91 26 114 57 29 40 37 85
17 105 -15 15 -35 22 -35 12 0 -3 4 -16 9 -30 8 -19 5 -32 -12 -58 -19 -28
-75 -66 -99 -68 -12 0 -9 46 11 159 17 103 18 104 34 81 9 -14 17 -29 17 -35
0 -6 7 -20 16 -31 15 -18 15 -17 8 11 -4 17 -6 38 -6 48 0 9 -4 17 -9 17 -5 0
-7 11 -3 25 6 25 -8 35 -21 15 -3 -5 -9 -10 -13 -10 -10 0 -2 181 8 200 5 9
32 22 62 29 29 8 67 20 83 28 29 14 29 14 -23 10 -51 -4 -53 -3 -47 17 7 21
35 202 55 351 6 44 16 99 22 122 6 23 8 49 4 58 -4 10 -2 14 6 9 8 -5 9 26 4
119 -6 118 -27 211 -63 283 -6 10 -17 33 -26 50 -9 17 -14 34 -10 38 13 13 51
5 77 -15 14 -11 26 -16 26 -11 0 6 -6 12 -12 15 -16 5 16 44 43 52 32 10 22
27 -11 20 -16 -4 -30 -5 -30 -2 0 2 20 18 44 35 24 17 50 46 59 64 9 18 26 43
39 55 13 11 34 33 47 48 18 20 26 23 32 13 14 -22 11 14 -6 63 -9 26 -37 67
-70 101 -48 50 -55 63 -55 97 0 31 -7 47 -28 69 -15 16 -26 34 -24 40 2 7 -3
12 -12 12 -9 0 -25 9 -35 19 -10 10 -35 25 -55 32 -40 14 -45 23 -18 34 14 5
11 9 -16 21 -18 7 -31 18 -28 22 3 5 -12 6 -35 2 -40 -7 -40 -7 -34 17 l6 25
-30 -21 c-24 -18 -30 -19 -35 -6 -3 8 -9 15 -13 14 -20 -3 -24 2 -13 16 18 21
3 32 -22 16 -17 -11 -22 -11 -29 1 -6 9 -3 14 9 16 32 7 33 19 7 68 -15 27
-24 41 -21 32 3 -12 0 -18 -9 -18 -9 0 -15 10 -15 26 0 17 -6 28 -19 31 -11 3
-21 13 -24 24 -6 21 -42 26 -51 7 -5 -13 -6 -12 -34 30 -5 7 -32 15 -60 19
-45 5 -52 8 -47 24 7 21 -5 25 -23 7 -9 -9 -12 -9 -12 3 0 8 5 20 12 27 6 6 9
14 6 18 -4 3 -17 -6 -29 -20 -26 -30 -39 -33 -39 -10 0 13 -3 14 -15 4 -8 -6
-19 -9 -25 -5 -7 4 -18 -2 -26 -14 -21 -29 -44 -26 -77 9 -16 17 -39 30 -52
30 -12 0 -28 7 -35 15 -7 8 -25 15 -40 15 -15 0 -43 6 -61 14 -49 19 -111 23
-214 14z m500 -108 c-3 -5 -11 -10 -16 -10 -6 0 -7 5 -4 10 3 6 11 10 16 10 6
0 7 -4 4 -10z m-1040 -57 c-4 -10 -8 -37 -8 -60 -1 -24 -5 -43 -9 -43 -4 0 -8
7 -8 16 0 14 -2 15 -16 3 -15 -13 -17 -11 -12 19 3 19 0 32 -6 33 -6 0 -1 4
12 9 12 5 25 16 28 25 4 8 11 15 16 15 6 0 7 -8 3 -17z m845 -3 c0 -5 -4 -10
-10 -10 -5 0 -10 5 -10 10 0 6 5 10 10 10 6 0 10 -4 10 -10z m-645 -20 c-3 -5
-11 -10 -16 -10 -6 0 -7 5 -4 10 3 6 11 10 16 10 6 0 7 -4 4 -10z m-184 -53
c-13 -13 -15 11 -4 40 7 16 8 15 11 -6 2 -13 -1 -28 -7 -34z m1081 -69 c-7 -7
-12 -8 -12 -2 0 14 12 26 19 19 2 -3 -1 -11 -7 -17z m318 -53 c0 -8 5 -15 10
-15 6 0 10 -7 10 -16 0 -8 -5 -12 -10 -9 -6 4 -13 -7 -16 -24 -7 -32 -24 -43
-24 -15 0 8 -5 12 -11 8 -6 -3 -3 6 7 22 14 21 15 29 6 32 -10 3 -10 7 -1 18
15 18 29 18 29 -1z m550 -551 c0 -8 -4 -12 -10 -9 -5 3 -10 10 -10 16 0 5 5 9
10 9 6 0 10 -7 10 -16z m-1110 -124 c8 -5 12 -12 8 -15 -10 -10 -49 5 -43 16
8 11 16 11 35 -1z m91 0 c10 0 19 -7 19 -15 0 -8 5 -15 10 -15 6 0 10 7 10 15
0 17 21 20 37 4 5 -5 36 -13 67 -16 31 -3 61 -12 67 -19 6 -8 16 -14 21 -14
10 0 65 -39 110 -79 46 -40 88 -114 88 -154 0 -46 21 -137 32 -137 4 0 8 -9 8
-20 0 -11 4 -20 8 -20 33 0 63 -150 53 -270 -3 -34 2 -64 12 -71 5 -3 10 -21
12 -40 1 -19 20 -70 41 -114 54 -115 58 -125 36 -97 -26 34 -98 172 -106 203
-12 52 -36 68 -121 81 -72 11 -86 17 -142 59 -73 57 -130 84 -148 69 -8 -7
-29 -7 -63 0 -61 11 -204 -16 -287 -55 -29 -14 -59 -25 -68 -25 -10 0 -17 -8
-17 -20 0 -11 -4 -20 -10 -20 -5 0 -25 -17 -44 -37 -30 -33 -39 -37 -82 -38
-27 0 -53 -4 -57 -10 -6 -6 -10 -6 -14 3 -2 6 -16 12 -30 12 -16 0 -37 14 -60
40 -20 22 -42 40 -49 40 -7 0 -25 11 -39 25 -14 14 -25 21 -25 14 0 -8 -4 -8
-13 -1 -7 6 -49 14 -93 17 -98 8 -225 -13 -298 -49 -55 -28 -129 -90 -158
-134 -23 -35 -23 -42 5 -42 12 0 -16 -16 -63 -35 -46 -19 -84 -35 -85 -35 0 0
2 24 3 54 2 29 -2 100 -8 157 -7 57 -11 121 -11 142 2 53 27 145 48 176 22 32
36 71 69 186 22 78 32 97 72 137 46 48 86 68 132 67 46 -1 150 -21 156 -30 7
-12 68 -11 124 2 55 13 132 21 183 20 22 -1 37 3 37 10 0 7 9 9 23 5 30 -8
127 14 127 29 0 14 64 30 79 20 5 -3 12 1 14 7 4 10 8 10 15 0 15 -21 113 -18
129 4 7 10 13 13 13 8 0 -6 -5 -15 -12 -22 -9 -9 -9 -12 3 -12 9 0 19 3 23 7
4 4 41 6 83 4 57 -2 74 0 68 9 -9 15 14 32 33 25 8 -3 22 -5 33 -5z m159 -6
c0 -2 -9 -4 -20 -4 -11 0 -20 4 -20 9 0 5 9 7 20 4 11 -3 20 -7 20 -9z m27
-780 c-3 -3 -12 -4 -19 -1 -8 3 -5 6 6 6 11 1 17 -2 13 -5z m76 -11 c-7 -2
-21 -2 -30 0 -10 3 -4 5 12 5 17 0 24 -2 18 -5z m115 -73 c19 -38 22 -60 22
-152 0 -140 -13 -200 -50 -232 -41 -34 -146 -63 -274 -77 -125 -13 -213 -6
-265 21 -40 20 -78 57 -68 66 3 4 1 16 -5 28 -6 11 -7 18 -3 14 4 -4 14 0 20
9 11 15 13 15 19 -5 4 -12 13 -22 21 -22 7 0 20 -3 29 -6 11 -4 16 -1 16 10 0
20 29 21 36 2 5 -12 48 -23 164 -41 14 -2 41 0 60 5 l35 8 -30 2 c-44 2 -142
24 -152 33 -4 5 5 5 21 1 23 -5 27 -4 21 7 -6 11 -5 12 6 2 16 -16 40 -17 37
-1 -2 6 8 15 22 19 17 5 19 7 7 8 -10 1 -16 5 -13 10 4 5 0 12 -6 14 -7 3 3 3
22 0 27 -3 31 -2 20 6 -12 8 -5 11 28 11 31 0 42 -4 42 -15 0 -19 2 -19 72 7
36 13 54 24 47 29 -6 4 -9 14 -6 22 4 10 -2 17 -15 20 -14 4 -19 11 -14 22 3
10 2 14 -5 10 -5 -4 -22 1 -37 11 -50 34 -116 62 -130 56 -10 -3 -13 0 -10 9
5 15 46 14 63 -2 5 -5 19 -9 30 -9 12 0 32 -11 45 -25 33 -35 45 -31 18 5 -12
17 -28 30 -35 30 -7 0 -13 5 -13 12 0 6 -3 8 -6 5 -4 -3 -14 -2 -24 3 -9 5
-57 14 -106 20 -98 13 -111 19 -96 46 25 45 162 57 234 20 25 -13 62 -26 82
-30 19 -4 39 -12 43 -19 12 -19 84 -70 90 -64 9 9 -26 115 -44 133 -14 13 -14
16 -3 13 8 -3 25 -25 38 -49z m-718 -15 c-14 -16 0 -21 16 -5 10 10 50 15 101
12 25 -2 31 -6 30 -22 -1 -11 -5 -20 -9 -20 -14 0 -78 -62 -72 -71 3 -5 -1 -9
-9 -9 -8 0 -18 -7 -21 -16 -3 -8 -10 -12 -16 -9 -16 10 -12 -6 7 -27 9 -10 11
-18 5 -18 -6 0 -19 11 -28 26 -9 14 -23 23 -29 20 -8 -3 -15 8 -20 30 -3 20
-9 42 -12 49 -3 8 9 28 25 45 31 31 54 42 32 15z m772 -32 c-5 -59 -10 -63
-11 -10 -1 26 3 47 7 47 4 0 6 -17 4 -37z m65 -8 c20 -42 13 -52 -21 -30 -16
11 -26 27 -26 41 0 36 28 30 47 -11z m-1452 11 c-18 -13 -18 -14 9 -9 21 4 33
1 42 -12 7 -9 17 -14 23 -10 7 3 8 0 5 -9 -4 -10 -25 -16 -67 -19 -78 -5 -134
-27 -196 -75 -61 -46 -90 -94 -72 -115 9 -12 19 -13 48 -5 40 11 143 2 143
-13 0 -5 13 -9 28 -9 16 0 37 -7 48 -15 19 -15 19 -15 0 -30 -11 -8 -26 -15
-33 -15 -7 0 -13 -4 -13 -9 0 -5 17 -9 38 -10 20 0 48 -1 62 -1 53 -2 138 17
155 33 9 10 25 16 34 15 10 -2 20 7 28 27 l13 30 -6 -35 c-17 -100 -77 -178
-161 -210 -145 -54 -415 -81 -468 -46 -14 9 -32 30 -40 46 -17 33 -59 207 -70
285 -6 46 -4 54 22 82 15 17 44 39 63 49 29 14 188 63 205 63 3 0 29 4 58 10
28 6 63 13 77 15 14 2 29 4 34 5 6 0 1 -5 -9 -13z m300 -21 c27 -26 30 -58 16
-130 l-9 -40 -1 43 c-1 28 -5 41 -13 40 -9 -2 -12 9 -10 38 2 28 -2 46 -13 58
-9 9 -11 16 -5 16 6 0 22 -11 35 -25z m88 -60 c-3 -9 -8 -14 -10 -11 -3 3 -2
9 2 15 9 16 15 13 8 -4z m-453 -22 c0 -10 -121 -85 -126 -80 -3 2 5 15 15 29
29 36 111 74 111 51z m1080 -3 c0 -5 -4 -10 -9 -10 -6 0 -13 5 -16 10 -3 6 1
10 9 10 9 0 16 -4 16 -10z m-332 -11 c-2 -6 -8 -10 -13 -10 -5 0 -11 4 -13 10
-2 6 4 11 13 11 9 0 15 -5 13 -11z m422 -7 c13 -10 20 -24 17 -29 -8 -12 -100
-46 -95 -35 26 54 43 82 49 82 4 0 17 -8 29 -18z m-239 -14 c26 -29 24 -38 -8
-29 -16 4 -27 15 -30 29 -4 28 14 28 38 0z m-796 -18 c-3 -5 -10 -10 -16 -10
-5 0 -9 5 -9 10 0 6 7 10 16 10 8 0 12 -4 9 -10z m69 4 c25 -9 19 -43 -9 -56
-14 -6 -27 -9 -30 -6 -4 4 16 68 21 68 1 0 9 -3 18 -6z m-204 -44 c15 -37 11
-43 -25 -34 -34 8 -43 31 -19 49 27 20 30 19 44 -15z m367 -42 c-3 -7 -5 -2
-5 12 0 14 2 19 5 13 2 -7 2 -19 0 -25z"/>
<path d="M5688 9423 c7 -3 16 -2 19 1 4 3 -2 6 -13 5 -11 0 -14 -3 -6 -6z"/>
<path d="M4535 9247 c-6 -15 10 -126 20 -136 6 -5 -5 141 -11 148 -2 2 -6 -3
-9 -12z"/>
<path d="M6858 10296 c-26 -19 -22 -27 7 -14 14 6 25 15 25 20 0 12 -12 9 -32
-6z"/>
<path d="M6770 9043 c0 -3 7 -15 17 -25 13 -14 16 -40 16 -125 1 -172 -40
-287 -135 -387 -15 -16 -28 -40 -28 -53 0 -23 3 -22 40 19 49 53 83 121 117
236 35 119 42 157 43 229 0 77 -15 113 -47 113 -12 0 -23 -3 -23 -7z"/>
<path d="M4304 8938 c-14 -23 -4 -96 35 -250 43 -170 72 -237 121 -283 32 -30
32 -30 25 -5 -4 14 -25 44 -46 68 -65 74 -86 172 -68 320 8 65 8 86 -1 92 -7
4 -10 12 -7 17 8 13 -21 53 -38 53 -8 0 -17 -5 -21 -12z"/>
<path d="M5545 8690 c-4 -6 10 -10 34 -10 30 0 41 -4 41 -15 0 -20 15 -19 47
2 l26 17 -24 7 c-38 11 -117 10 -124 -1z"/>
<path d="M5240 8676 c0 -9 50 -12 62 -5 8 6 -1 9 -24 9 -21 0 -38 -2 -38 -4z"/>
<path d="M5525 8633 c-16 -3 -38 -12 -48 -20 -11 -11 -31 -15 -55 -13 -48 4
-131 3 -159 -2 -25 -5 -106 -40 -113 -49 -8 -10 -68 -39 -80 -39 -6 0 -32 -9
-57 -21 -32 -14 -48 -17 -53 -10 -18 30 -70 -75 -67 -133 3 -45 34 -69 94 -73
24 -1 51 -9 59 -18 9 -8 29 -22 45 -30 26 -14 29 -14 29 1 0 14 7 15 40 10 43
-7 54 6 20 24 -11 6 -18 16 -14 22 4 7 9 6 14 -2 4 -6 5 11 2 38 l-4 49 81 -2
c74 -2 104 6 87 22 -3 3 -23 9 -43 13 l-38 8 33 1 c17 0 32 6 32 11 0 6 8 10
18 9 10 0 12 -3 4 -6 -6 -2 -10 -8 -7 -13 6 -10 45 -1 45 11 0 5 9 9 20 9 11
0 20 4 20 9 0 9 84 26 108 22 6 -1 12 5 12 14 0 9 4 14 9 10 5 -3 15 0 23 7
18 17 59 22 68 9 4 -7 18 -14 33 -16 14 -3 36 -9 49 -14 l23 -10 -23 0 c-13
-1 -21 -4 -19 -8 3 -5 -18 -9 -46 -10 -37 -1 -55 3 -65 15 -7 10 -11 12 -8 6
3 -7 -4 -15 -17 -19 -19 -7 -17 -9 18 -15 l40 -7 -50 -3 -50 -2 39 -10 c29 -8
44 -8 58 1 13 8 24 8 38 1 10 -5 39 -10 63 -10 39 0 46 -3 51 -25 4 -16 11
-22 21 -19 11 5 15 -1 15 -20 0 -36 -47 -78 -82 -73 -16 2 -28 0 -28 -5 0 -5
-14 -15 -31 -22 -30 -13 -31 -13 -8 -19 34 -9 48 -7 24 3 -16 7 -13 9 17 9 20
1 39 7 41 14 3 7 6 5 6 -5 1 -11 6 -15 15 -12 8 3 20 -3 27 -14 12 -20 16 -18
76 39 35 32 76 62 91 65 41 10 49 20 57 70 5 35 2 51 -12 72 -10 15 -20 38
-23 51 -3 13 -12 26 -20 28 -13 4 -13 3 0 -7 12 -9 7 -10 -24 -5 -39 6 -45 9
-104 38 -19 9 -39 17 -47 17 -7 0 -18 6 -25 14 -6 8 -19 12 -27 9 -11 -4 -14
-2 -9 5 5 8 -3 12 -23 12 -17 0 -31 3 -31 8 0 8 -109 12 -155 5z m305 -176 c0
-4 -9 -3 -20 3 -11 6 -20 15 -20 20 0 6 9 5 20 -2 11 -7 20 -16 20 -21z m-710
-8 c0 6 13 9 30 8 21 -1 30 -7 30 -19 0 -10 5 -18 12 -18 7 0 8 -3 3 -9 -6 -5
-38 -12 -73 -15 l-63 -7 15 29 c8 16 12 33 8 37 -4 4 3 2 16 -4 13 -7 22 -8
22 -2z m107 -15 c-3 -3 -12 -4 -19 -1 -8 3 -5 6 6 6 11 1 17 -2 13 -5z"/>
<path d="M5340 8210 c0 -5 5 -10 11 -10 5 0 7 5 4 10 -3 6 -8 10 -11 10 -2 0
-4 -4 -4 -10z"/>
<path d="M5316 8023 c-47 -44 -30 -72 44 -74 59 -2 115 -32 106 -56 -8 -19 11
-16 23 5 7 11 13 13 18 6 7 -9 58 -12 73 -4 3 1 8 2 13 1 4 0 7 4 7 9 0 6 1
13 2 18 3 10 47 32 64 32 8 0 11 6 7 15 -3 9 -2 15 3 13 14 -5 16 5 7 27 -4
11 -15 22 -23 25 -8 3 -83 6 -166 6 -148 1 -153 1 -178 -23z"/>
<path d="M5991 7854 c0 -11 3 -14 6 -6 3 7 2 16 -1 19 -3 4 -6 -2 -5 -13z"/>
<path d="M6236 7843 c-6 -14 -5 -15 5 -6 7 7 10 15 7 18 -3 3 -9 -2 -12 -12z"/>
<path d="M6010 7830 c0 -5 -7 -7 -16 -3 -13 5 -15 2 -9 -17 6 -19 4 -22 -10
-16 -19 7 -55 -23 -55 -45 0 -6 -7 -9 -15 -5 -8 3 -15 1 -15 -5 0 -6 -7 -9
-15 -5 -8 3 -15 1 -15 -5 0 -6 -4 -7 -10 -4 -5 3 -7 0 -5 -8 4 -8 -6 -19 -22
-27 -15 -8 -38 -25 -50 -39 -13 -13 -23 -21 -23 -16 0 4 -17 -10 -37 -31 l-37
-39 -6 25 c-5 22 -7 23 -13 7 -4 -10 -11 -16 -16 -13 -22 14 -71 13 -71 0 0
-22 -18 -16 -22 7 l-3 21 -26 -21 c-15 -11 -36 -19 -47 -16 -12 2 -24 -1 -28
-6 -4 -7 -10 -6 -18 0 -9 8 -18 6 -32 -4 -21 -16 -38 -20 -30 -6 4 5 -3 7 -14
4 -15 -4 -19 -2 -15 10 4 8 -1 17 -11 21 -11 4 -15 2 -11 -6 2 -7 -1 -19 -8
-25 -10 -10 -14 -9 -19 3 -9 24 -6 41 4 19 l9 -20 0 20 c0 11 -3 26 -8 33 -6
10 -10 9 -14 -7 -3 -12 -10 -21 -17 -21 -6 0 -9 4 -5 9 3 5 1 12 -5 16 -5 3
-10 3 -10 -2 0 -4 -11 -13 -23 -19 -24 -11 -47 2 -47 26 0 7 -8 9 -20 5 -13
-4 -20 -2 -20 7 0 21 -36 48 -48 36 -15 -15 -26 10 -12 27 10 12 9 15 -9 15
-11 0 -21 4 -21 10 0 5 -7 7 -15 4 -8 -4 -15 -1 -15 5 0 19 -27 12 -33 -9 -7
-27 64 -101 130 -135 28 -14 57 -33 64 -41 7 -8 21 -12 33 -9 12 3 15 2 9 -1
-21 -10 -14 -19 15 -20 36 -1 107 -19 162 -40 29 -11 73 -17 125 -16 105 0
163 16 310 87 50 24 112 52 139 61 28 10 51 25 53 35 3 10 18 23 34 29 16 7
29 15 29 19 0 4 14 15 30 25 17 9 27 22 24 28 -4 7 -9 7 -13 0 -3 -5 -17 -12
-31 -13 -21 -3 -26 1 -28 23 -2 19 -8 25 -18 21 -16 -6 -20 32 -4 42 17 10 11
25 -10 25 -11 0 -20 -4 -20 -10z m11 -103 c-8 -8 -11 -7 -11 4 0 9 3 19 7 23
4 4 9 2 11 -4 3 -7 -1 -17 -7 -23z m-491 -147 c0 -5 -5 -10 -11 -10 -5 0 -7 5
-4 10 3 6 8 10 11 10 2 0 4 -4 4 -10z m-93 -96 c-3 -3 -12 -4 -19 -1 -8 3 -5
6 6 6 11 1 17 -2 13 -5z"/>
<path d="M6192 7804 c-12 -8 -27 -25 -33 -37 -8 -16 -1 -12 25 12 33 32 40 41
33 41 -1 0 -13 -7 -25 -16z"/>
<path d="M5270 7686 c0 -8 5 -18 10 -21 6 -3 10 1 10 9 0 8 -4 18 -10 21 -5 3
-10 -1 -10 -9z"/>
<path d="M4802 7623 c-14 -65 -13 -72 44 -213 35 -87 78 -166 275 -504 38 -65
72 -129 75 -142 3 -13 21 -45 40 -71 19 -26 34 -53 34 -59 0 -14 86 -136 107
-151 9 -7 13 -16 9 -20 -9 -9 -70 24 -102 56 -22 22 -37 26 -99 29 -40 2 -81
0 -90 -5 -15 -9 -9 -17 41 -56 33 -25 84 -80 114 -122 30 -42 68 -92 84 -111
47 -57 53 -149 12 -190 -9 -8 -30 -37 -48 -62 -52 -78 -58 -83 -75 -67 -22 23
-35 18 -22 -7 7 -13 16 -25 20 -28 5 -3 4 -44 -1 -90 -6 -47 -15 -193 -20
-325 -6 -132 -17 -341 -25 -465 -28 -427 -35 -546 -55 -890 -11 -190 -24 -408
-30 -485 -5 -77 -12 -189 -15 -250 -19 -411 -53 -965 -65 -1088 -8 -82 -37
-459 -85 -1117 -16 -223 -21 -857 -8 -1077 l6 -113 514 0 514 0 -7 23 c-3 12
-22 61 -40 109 -19 48 -34 94 -34 101 0 8 -16 63 -35 123 -32 99 -35 120 -35
234 -1 69 -5 161 -10 205 -5 44 -13 238 -19 430 -6 193 -16 433 -21 535 -18
317 -52 1177 -70 1750 -5 168 -14 375 -19 460 -14 218 -18 741 -7 1165 9 368
6 411 -29 530 -23 78 -92 327 -99 356 -11 50 22 99 158 235 116 117 141 137
215 173 l83 40 -33 21 c-19 11 -50 25 -70 31 -33 10 -40 9 -79 -20 -24 -17
-52 -31 -64 -31 -12 0 -39 -7 -61 -15 -22 -8 -60 -14 -85 -14 -116 1 -95 37
44 74 54 14 112 33 130 41 37 19 245 226 304 304 24 30 53 68 65 84 103 133
179 255 196 315 24 82 31 139 22 171 -6 20 -9 12 -14 -36 -11 -93 -102 -241
-214 -350 -24 -23 -43 -45 -43 -49 0 -10 -123 -131 -170 -168 -138 -108 -177
-132 -234 -142 -43 -8 -177 20 -192 39 -17 24 -44 20 -44 -6 0 -12 3 -18 6
-15 9 9 44 -32 44 -50 0 -31 -19 -50 -45 -46 -17 4 -25 1 -25 -8 0 -11 -2 -11
-10 1 -9 13 -10 13 -10 0 0 -18 -76 104 -84 135 -3 12 -24 42 -46 66 -22 24
-40 49 -40 56 0 6 -6 18 -13 25 -7 7 -16 21 -20 31 -4 10 -10 16 -14 14 -5 -3
-21 21 -37 54 -17 32 -32 56 -34 54 -6 -6 -45 44 -72 92 -13 23 -27 40 -32 37
-4 -3 -8 1 -8 8 0 7 -13 29 -28 48 -30 37 -76 112 -104 170 -28 58 -38 110
-38 203 0 48 -4 87 -8 87 -4 0 -13 -26 -20 -57z"/>
<path d="M7970 4858 c-36 -40 -56 -66 -44 -58 27 20 123 130 112 130 -2 0 -33
-33 -68 -72z"/>
<path d="M7742 4465 c-7 -14 -12 -33 -12 -43 0 -14 2 -13 14 3 18 27 29 65 18
65 -5 0 -14 -11 -20 -25z"/>
<path d="M7731 4130 c0 -47 2 -109 5 -138 l7 -52 44 61 c43 58 95 160 59 116
-28 -36 -91 -1 -105 59 -8 34 -9 28 -10 -46z"/>
<path d="M3471 3790 c0 -19 4 -42 9 -50 8 -12 10 -11 9 5 -1 11 -5 34 -9 50
l-8 30 -1 -35z"/>
<path d="M3485 3685 c2 -22 5 -62 5 -89 0 -27 3 -46 7 -43 9 10 3 125 -8 151
-7 16 -8 12 -4 -19z"/>
<path d="M8054 1233 c2 -16 8 -75 11 -133 6 -99 5 -110 -18 -163 -21 -46 -25
-66 -20 -112 5 -46 9 -55 25 -55 11 0 16 5 13 10 -4 6 -10 8 -15 5 -4 -3 -10
13 -12 34 -2 28 0 37 9 34 9 -4 13 5 13 26 0 17 5 31 11 31 6 0 9 6 6 13 -2 6
1 26 8 43 21 52 28 166 14 229 -10 43 -15 53 -20 39 -7 -17 -8 -17 -8 4 -1 12
-6 22 -12 22 -6 0 -8 -11 -5 -27z"/>
<path d="M3630 1100 c0 -69 -20 -113 -71 -160 -47 -45 -48 -47 -38 -83 5 -20
13 -39 18 -41 5 -3 21 25 36 62 16 37 39 83 52 102 24 37 31 111 13 140 -7 11
-10 6 -10 -20z"/>
<path d="M8047 747 c-4 -11 -12 -15 -19 -11 -8 5 -9 2 -4 -12 5 -10 8 -23 7
-29 0 -5 -2 -64 -4 -130 -3 -88 -8 -128 -20 -150 -23 -41 -21 -113 4 -187 18
-55 19 -69 9 -127 -6 -36 -13 -74 -16 -83 -4 -13 0 -18 15 -18 13 0 21 7 22
18 3 69 37 172 66 199 31 29 29 38 -12 89 -19 23 -35 52 -35 65 0 12 -6 27
-14 33 -12 9 -11 24 4 100 16 73 24 93 48 115 17 14 33 38 36 52 7 32 -15 65
-38 56 -27 -11 -31 -9 -36 15 -5 20 -7 21 -13 5z"/>
<path d="M7841 659 c-25 -30 -47 -57 -51 -61 -3 -4 -30 -12 -60 -18 -48 -9
-164 -58 -252 -106 -15 -8 -46 -21 -70 -30 -84 -29 -218 -98 -223 -115 -10
-30 -142 -58 -345 -74 -104 -8 -142 -20 -212 -66 -34 -22 -74 -42 -88 -45 -14
-3 -101 -29 -195 -59 -93 -30 -192 -61 -220 -68 -44 -13 53 -15 888 -16 l937
-1 0 24 c0 13 -6 59 -14 102 -8 44 -14 131 -15 194 0 63 -9 178 -18 254 l-18
140 -44 -55z"/>
<path d="M3570 658 c0 -18 21 -91 47 -163 43 -119 47 -138 48 -230 2 -116 14
-222 27 -247 8 -17 38 -18 411 -18 352 1 400 2 383 15 -36 28 -152 64 -238 75
-99 13 -168 48 -269 135 -32 28 -78 67 -104 89 -26 21 -58 63 -75 95 -31 59
-95 139 -105 129 -3 -3 -9 -25 -13 -48 -9 -56 -25 -60 -47 -14 -13 27 -16 51
-12 91 5 44 2 60 -16 88 -28 43 -37 44 -37 3z"/>
</g>
</svg>
